<?xml version="1.0" encoding="utf-8"?>
<!-- Generator: Adobe Illustrator 24.3.0, SVG Export Plug-In . SVG Version: 6.00 Build 0)  -->
<svg version="1.1" id="Layer_1" xmlns="http://www.w3.org/2000/svg" xmlns:xlink="http://www.w3.org/1999/xlink" x="0px" y="0px"
	 viewBox="0 0 69.7 68.1" style="enable-background:new 0 0 69.7 68.1;" xml:space="preserve">
<style type="text/css">
	.st0{fill-rule:evenodd;clip-rule:evenodd;fill:#2F1012;}
	.st1{fill-rule:evenodd;clip-rule:evenodd;fill:#F8991D;}
</style>
<g id="Layer_2_1_">
	<g id="Layer_1-2">
		<path class="st0" d="M69.7,58.9V9.2c-1.7-2.5-1.5-3.7-4-5.8c-2.9-2.5-3.1-1.7-6.2-3.4H9.9C5.1,2.9,1.7,3.5,0.4,10
			c-0.7,3.2-0.3,32.8-0.3,38.8c0,6.6-0.1,12,3.8,15.9C8,68.8,13.1,68,19.9,68l39-0.1C65.9,67.1,66.6,63.2,69.7,58.9L69.7,58.9z"/>
		<path class="st1" d="M14.8,48h6l2.4-7l10.7-0.1l2.5,7.2h6.6c-0.1-2.7-9-26.9-10.4-30.6h-8c-0.6,4.9-3.3,10.7-4.8,15.2
			C18.5,36.3,14.9,45.1,14.8,48z"/>
		<polygon class="st1" points="46.1,47.9 52.5,48.2 52.6,25 46.2,25 		"/>
		<path class="st1" d="M48,15.6c-4.4,1.8-1.5,8.6,3.1,6.5C54.8,20.5,53.3,13.5,48,15.6z"/>
		<polygon class="st0" points="24.9,34.9 31.9,34.8 28.5,23.8 		"/>
	</g>
</g>
</svg>
