<?xml version="1.0" encoding="utf-8"?>
<!-- Generator: Adobe Illustrator 24.3.0, SVG Export Plug-In . SVG Version: 6.00 Build 0)  -->
<svg version="1.1" id="Layer_1" xmlns="http://www.w3.org/2000/svg" xmlns:xlink="http://www.w3.org/1999/xlink" x="0px" y="0px"
	 viewBox="0 0 16 16" style="enable-background:new 0 0 16 16;" xml:space="preserve">
<style type="text/css">
	.st0{fill:#FFFFFF;}
</style>
<path class="st0" d="M14,0c1.1,0,2,0.9,2,2v12c0,1.1-0.9,2-2,2H2c-1.1,0-2-0.9-2-2V2c0-1.1,0.9-2,2-2H14z M5.9,10.8L10,6.7v2.8
	c0,0.3,0.2,0.5,0.5,0.5S11,9.8,11,9.5v-4C11,5.2,10.8,5,10.5,5h-4C6.2,5,6,5.2,6,5.5S6.2,6,6.5,6h2.8l-4.1,4.1
	c-0.2,0.2-0.2,0.5,0,0.7C5.4,11,5.7,11,5.9,10.8"/>
</svg>
