<svg xmlns="http://www.w3.org/2000/svg" viewBox="0 0 24 19.49"><defs><style>.cls-1{fill:#e87d0d;}.cls-2{fill:#265787;}</style></defs><g id="Layer_2" data-name="Layer 2"><g id="Layer_1-2" data-name="Layer 1"><path class="cls-1" d="M12.51,11a2.85,2.85,0,0,1,1-2,3.37,3.37,0,0,1,2.21-.79A3.43,3.43,0,0,1,18,9a2.81,2.81,0,0,1,1,2,2.75,2.75,0,0,1-.86,2.15,3.47,3.47,0,0,1-4.75,0A2.79,2.79,0,0,1,12.51,11M7.35,12.58A6.29,6.29,0,0,0,7.61,14,7.24,7.24,0,0,0,9.2,16.73a8.14,8.14,0,0,0,2.79,2,9.11,9.11,0,0,0,7.31,0,8.3,8.3,0,0,0,2.79-2A7.34,7.34,0,0,0,23.68,14a6.94,6.94,0,0,0,.25-3.07,7.07,7.07,0,0,0-1-2.78,7.7,7.7,0,0,0-1.85-2h0L13.57.3l0,0a1.68,1.68,0,0,0-1.86,0,.85.85,0,0,0-.13,1.42h0l3.13,2.54H5.14A1.74,1.74,0,0,0,3.45,5.43c-.15.66.38,1.21,1.2,1.22H9.48L.86,13.25l0,0a1.69,1.69,0,0,0-.57,2.31,1.74,1.74,0,0,0,2.45,0l4.7-3.85a6.6,6.6,0,0,0-.06.83Zm12.09,1.74a5.43,5.43,0,0,1-7.59,0,4.55,4.55,0,0,1-1-1.62,4.33,4.33,0,0,1,.28-3.52,4.78,4.78,0,0,1,1.16-1.37,5.4,5.4,0,0,1,3.39-1.19A5.34,5.34,0,0,1,19,7.81a4.55,4.55,0,0,1,1.15,1.37,4.21,4.21,0,0,1,.52,1.7,4.12,4.12,0,0,1-.23,1.81,4.59,4.59,0,0,1-1,1.63"/><ellipse class="cls-2" cx="15.76" cy="11.11" rx="3.24" ry="2.96"/></g></g></svg>