<svg xmlns="http://www.w3.org/2000/svg" viewBox="0 0 76.19 76.06"><defs><style>.cls-1{fill:#ee312d;}.cls-1,.cls-2{fill-rule:evenodd;}.cls-2{fill:#feffff;}</style></defs><g id="Layer_2" data-name="Layer 2"><g id="Layer_1-2" data-name="Layer 1"><path class="cls-1" d="M7.64,16.38c8,3.28,7.76,10.64,10.3,14.92,1.61-2,4.28-10.37,13.38-8,6.36,1.67,8.3,9,9.84,11.31,1.94-2.41,1.74-4.08,4.21-6,7.09-5.56,15.79.46,17.73,8.69l-4.75,1.61c-2.07-6.42-8.3-9-12.18-2.41-4.75,8,.27,15.19-6.82,14.18C37.08,47.29,37,27.89,27.24,30.43,17.67,32.84,24,51.84,15.4,50.77c-2.48-3.41-2-11.44-3.61-16.32C9,25.55,6.3,26.28,3,23.81c-4.35,8.5-3.62,21,.33,29.44C7.44,62.08,12.72,67.63,21.35,72a38.07,38.07,0,0,0,15.32,4.08h2.61c8-.34,15.86-3.48,23.15-9,3.48-2.61,6.09-6.36,8.56-10.24C87.25,31,63.17-6.83,29.38,1.06A35.82,35.82,0,0,0,16.94,6.62C14.13,8.49,8.38,13,7.64,16.38Z"/><path class="cls-2" d="M3,23.81c3.34,2.47,6,1.74,8.83,10.64,1.6,4.88,1.13,12.91,3.61,16.32C24,51.84,17.67,32.84,27.24,30.43,37,27.89,37.08,47.29,39.35,50.7c7.09,1,2.07-6.22,6.82-14.18,3.88-6.56,10.11-4,12.18,2.41l4.75-1.61c-1.94-8.23-10.64-14.25-17.73-8.69-2.47,1.94-2.27,3.61-4.21,6-1.54-2.34-3.48-9.64-9.84-11.31-9.1-2.41-11.77,6-13.38,8C15.4,27,15.6,19.66,7.64,16.38c-1.07.4-.27-.2-1.34,1C6.23,17.52,5.23,19,5,19.26A31.55,31.55,0,0,0,3,23.81Z"/><path class="cls-2" d="M61.09,42.34c-4.28,2.48-1.27,11.51,4.15,8.83,5-2.41.74-11.71-4.15-8.83Z"/></g></g></svg>