<svg xmlns="http://www.w3.org/2000/svg" viewBox="0 0 69.86 67.84"><defs><style>.cls-1{fill:#1d1b56;}.cls-1,.cls-2{fill-rule:evenodd;}.cls-2{fill:#9896c9;}</style></defs><g id="Layer_2" data-name="Layer 2"><g id="Layer_1-2" data-name="Layer 1"><path class="cls-1" d="M0,9.3V58.4C1.47,61,1.07,61.82,3.21,64c2.41,2.48,3.35,2,5.89,3.82H60.34c2.61-1.74,3.55-1.54,5.89-4,5.22-5.55,3.28-16.19,3.28-26V18.53C69.51.4,64.29,0,49.24,0L10.44.13C3.81,1,2.68,4.82,0,9.3Z"/><path class="cls-2" d="M16.39,48l6.29.06.07-9.63c5-.2,8.69.07,12-2.61,2.81-2.27,4.21-6.15,3.34-10.64-1.8-9-12.64-8-21.67-7.69Z"/><path class="cls-2" d="M48.7,27.3c-.67-1.54,0-1-1.13-2.55l-5.42-.13L42.28,48,48.84,48,49,32.78c3-2.34,3.61-1.4,7.49-2.47l-.06-5.89a9.6,9.6,0,0,0-7.7,2.88Z"/><path class="cls-1" d="M22.75,25.89v6.76c4.34.33,8.89-.07,9.16-4.49.34-5.15-4.48-5.48-9.16-5Z"/></g></g></svg>