<svg xmlns="http://www.w3.org/2000/svg" viewBox="0 0 69.76 68.25"><defs><style>.cls-1{fill:#061f37;}.cls-1,.cls-2{fill-rule:evenodd;}.cls-2{fill:#53a0d8;}</style></defs><g id="Layer_2" data-name="Layer 2"><g id="Layer_1-2" data-name="Layer 1"><path class="cls-1" d="M59.77,0H10.87c-5,2.07-5.62,1.27-8.57,5.35C-.44,9.23,0,12.51,0,17.53.1,27,0,36.39,0,45.83,0,56.33-.84,63.35,7.52,67c4,1.74,51,1.67,54.73.06,8.29-3.61,7.49-10.23,7.49-20.6V18.06C69.74,3.68,68,4.75,59.77,0Z"/><path class="cls-2" d="M15.68,47.9l6.16.2.27-9.43c2.94-.4,18.26.47,15.32-13.52-1.81-8.22-12.18-8.89-21.61-7.42Z"/><path class="cls-2" d="M40.91,41.68l-.14,5.55c5.42,2.28,14.92,2.48,16.59-3.88C60,33.72,47.6,35.59,47,30.64c2.75-1.67,6.43-.33,9.3.47.34-2.95,1.07-5.42-1.67-6.22a25.65,25.65,0,0,0-7.83-.07c-3.81.87-7.62,4.88-5.28,9.83,1.8,4,8.36,4.42,9.36,6.56,2.08,4.21-9.36.6-10,.47Z"/><path class="cls-1" d="M22.11,32.58c12.24,2.41,12.71-11.77,0-9.17Z"/></g></g></svg>