<svg xmlns="http://www.w3.org/2000/svg" viewBox="0 0 1341.47 1207.33"><defs><style>.cls-1{fill:#f2f2f2;}.cls-2{fill:#ccc;stroke:#666;}.cls-2,.cls-3,.cls-4,.cls-5{stroke-miterlimit:10;}.cls-3{fill:#fff;}.cls-3,.cls-4{stroke:#333;}.cls-4,.cls-5{fill:none;}.cls-5{stroke:#000;}</style></defs><g id="Layer_2" data-name="Layer 2"><g id="Layer_1_copy" data-name="Layer 1 copy"><rect class="cls-1" width="1341.47" height="1207.33" rx="22.74"/><path class="cls-2" d="M868,579.52a127.91,127.91,0,0,0-39.88,40.74,126.55,126.55,0,0,0-17.75,51c-.38,3.09-.64,6.23-.79,9.4h0c-13.35,131.5-124.42,234.13-259.44,234.13V736.52a157,157,0,0,1,157-157Z"/><path class="cls-2" d="M1044.7,686.7a107.58,107.58,0,0,1-8.44,41.9c-.06.13-.12.25-.16.36q-1.39,3.07-2.84,6.11l0,0,0,.06a389.21,389.21,0,0,1-39.12,65.26c-71.06,95.88-185.05,158-313.57,158a389.46,389.46,0,0,1-130.32-22.3h.48c127.05,0,234.32-84.69,268.43-200.7a277.87,277.87,0,0,0,10.11-52.86v0a0,0,0,0,0,0,0q.4-4.24.67-8.52v0a107.81,107.81,0,0,1,95.66-94.46h18.82v-.34A107.78,107.78,0,0,1,1044.7,686.7Z"/><path class="cls-3" d="M810.36,671.28c-.21,3.15-.47,6.29-.79,9.4C809.72,677.51,810,674.37,810.36,671.28Z"/><path class="cls-3" d="M829.22,682.54q.16-4.32.67-8.52Q829.62,678.3,829.22,682.54Z"/><path class="cls-3" d="M936.92,578.92q3.76,0,7.45.26v.34H925.55A109.4,109.4,0,0,1,936.92,578.92Z"/><path class="cls-3" d="M1036.1,729q-1.32,3.1-2.84,6.11Q1034.7,732,1036.1,729Z"/><path class="cls-4" d="M680.52,178.43c-210.11,0-381.41,166.14-389.7,374.21q-.31,7.88-.32,15.82c0,169.7,108.38,314.09,259.7,367.72h.48c127.05,0,234.32-84.69,268.43-200.7a277.87,277.87,0,0,0,10.11-52.86v0a0,0,0,0,0,0,0q.4-4.24.67-8.52v0a107.81,107.81,0,0,1,95.66-94.46h18.82v-.34a107.86,107.86,0,0,1,91.89,149.42,387.27,387.27,0,0,0,24.28-72,391.73,391.73,0,0,0,10-88.18C1070.55,353.05,895.93,178.43,680.52,178.43ZM828.11,620.26a126.55,126.55,0,0,0-17.75,51c-.38,3.09-.64,6.23-.79,9.4h0c-13.35,131.5-124.42,234.13-259.44,234.13V736.52a157,157,0,0,1,157-157H868A127.91,127.91,0,0,0,828.11,620.26Z"/><circle class="cls-4" cx="703.57" cy="732.4" r="152.89"/><circle class="cls-4" cx="550.68" cy="656.43" r="279.75"/><circle class="cls-4" cx="936.77" cy="686.21" r="127.34"/><circle class="cls-4" cx="550.68" cy="656.43" r="258.39"/><circle class="cls-4" cx="936.77" cy="686.21" r="107.94"/><line class="cls-5" x1="551.37" x2="549.88" y2="1207.33"/><line class="cls-5" y1="579.52" x2="1341.47" y2="579.52"/></g></g></svg>