<svg xmlns="http://www.w3.org/2000/svg" viewBox="0 0 732.13 732.13"><defs><style>.cls-1{fill:#fff;}</style></defs><g id="Layer_2" data-name="Layer 2"><g id="Layer_1_copy" data-name="Layer 1 copy"><circle cx="366.06" cy="366.06" r="366.06"/><path class="cls-1" d="M426.74,237.13A91.47,91.47,0,0,0,385.35,303q-.39,3.33-.56,6.75h0c-9.59,94.43-89.33,168.11-186.28,168.11v-128A112.73,112.73,0,0,1,311.24,237.13Z"/><path class="cls-1" d="M553.62,314.09a77.24,77.24,0,0,1-6.06,30.09c0,.09-.08.17-.12.26-.67,1.46-1.34,2.93-2,4.38l0,0,0,0A280.39,280.39,0,0,1,198.56,493.22h.34a200.58,200.58,0,0,0,200-182.06h0s0,0,0,0q.28-3,.48-6.11v0a77.42,77.42,0,0,1,68.69-67.83h13.51v-.24A77.38,77.38,0,0,1,553.62,314.09Z"/></g></g></svg>