<svg xmlns="http://www.w3.org/2000/svg" viewBox="0 0 355.12 272.34"><defs><style>.cls-1{fill:#fff;}</style></defs><g id="Layer_2" data-name="Layer 2"><g id="Layer_1_copy" data-name="Layer 1 copy"><path class="cls-1" d="M228.23.24A91.85,91.85,0,0,0,199.6,29.5a90.85,90.85,0,0,0-12.75,36.63q-.4,3.33-.57,6.75h0C176.7,167.31,97,241,0,241V113A112.73,112.73,0,0,1,112.73.24Z"/><path class="cls-1" d="M355.12,77.2a77.25,77.25,0,0,1-6.07,30.09c0,.09-.08.17-.11.26-.67,1.46-1.35,2.93-2,4.38v0l0,0a279.06,279.06,0,0,1-28.09,46.86A279.66,279.66,0,0,1,93.62,272.34a279.49,279.49,0,0,1-93.56-16H.4c91.22,0,168.24-60.81,192.74-144.11a199.58,199.58,0,0,0,7.26-37.95h0v-.05q.28-3,.47-6.11v0A77.42,77.42,0,0,1,269.56.24h13.51V0A77.39,77.39,0,0,1,355.12,77.2Z"/></g></g></svg>